<?xml version="1.0" standalone="no"?><!DOCTYPE svg PUBLIC "-//W3C//DTD SVG 1.1//EN" "http://www.w3.org/Graphics/SVG/1.1/DTD/svg11.dtd"><svg t="1690526080860" class="icon" viewBox="0 0 1024 1024" version="1.1" xmlns="http://www.w3.org/2000/svg" p-id="2340" xmlns:xlink="http://www.w3.org/1999/xlink" width="200" height="200"><path d="M508.33 958.231c-245.98 0-446.104-200.123-446.104-446.103S262.35 66.037 508.33 66.037c224.528 0 414.804 167.765 442.633 390.218 1.983 15.807-9.239 30.23-25.036 32.2-15.795 1.961-30.218-9.238-32.201-25.034C869.5 269.765 703.81 123.723 508.328 123.723c-214.184 0-388.416 174.243-388.416 388.405 0 214.173 174.232 388.416 388.416 388.416 1.037 0 1.758 0 2.344-0.067 2.75-0.722 5.836-1.52 13.002-2.028 16.09-1.048 29.7 10.86 30.803 26.759 1.105 15.887-10.86 29.677-26.747 30.792-1.78 0.124-2.568 0.27-3.245 0.44-4.574 1.138-8.697 1.791-16.156 1.791z" p-id="2341"></path><path d="M508.33 958.231c-113.346 0-198.817-191.786-198.817-446.103S394.983 66.037 508.33 66.037c103.701 0 184.823 159.911 197.262 388.878 0.857 15.91-11.334 29.508-27.243 30.364-15.841 0.97-29.497-11.345-30.354-27.232-11.221-206.5-81.234-334.323-139.665-334.323-66.745 0-141.129 159.517-141.129 388.405 0 240.706 81.64 404.506 151.473 387.12 15.548-3.842 31.141 5.51 34.995 20.957 3.899 15.447-5.498 31.12-20.934 34.995-8.022 2.005-16.225 3.03-24.405 3.03z" p-id="2342"></path><path d="M467.994 654.599H144.002c-15.932 0-28.843-12.912-28.843-28.843s12.912-28.843 28.843-28.843h323.992c15.932 0 28.843 12.912 28.843 28.843s-12.912 28.843-28.843 28.843z m429-242.284H120.521c-15.932 0-28.843-12.912-28.843-28.843s12.912-28.843 28.843-28.843h776.471c15.932 0 28.843 12.912 28.843 28.843s-12.912 28.843-28.843 28.843zM924.7 737.262c-2.16-0.986-2.91-2.724-3.146-3.944-0.235-1.222-0.189-3.053 1.55-4.885 1.785-1.926 3.898-3.38 6.856-4.65 21.556-9.627 33.11-28.319 30.901-50.062-2.254-22.354-8.923-40.951-20.43-56.778-15.169-20.899-38.321-27.708-61.849-17.892-3.334 1.362-6.433 2.02-9.768 2.02-1.738 0-4.415-1.738-4.556-3.334-0.188-2.302 0.14-4.509 1.174-7.42 2.301-6.528 5.73-16.344 3.333-28.507-3.851-18.644-17-29.304-23.152-34.33-17.33-14.277-37.617-18.55-51.33-20.522-17.376-2.864-33.86 3.804-44.568 17.564-4.086 5.213-7.737 10.558-10.144 16.061-0.672 1.532-4.655 6.416-10.003 3.24-2.143-1.271-3.428-4.32-5.541-8.83-9.816-20.475-27.85-30.713-49.734-28.224-24.044 2.818-43.159 10.144-58.327 22.354-17.001 13.666-23.403 32.172-18.504 52.317 0.535 2.2 0.92 4.155 1.597 6.486 0 0 0.75 2.78 0.825 4.432 0.061 1.356 0.369 2.786-0.376 4.209-0.825 1.577-2.462 3.384-6.319 3.235-2.864-0.189-6.575-0.987-13.807-3.053-10.801-3.005-31.606-4.931-50.157 16.202-12.96 14.84-18.269 31.794-21.697 46.4-6.012 25.312 3.898 56.543 33.72 66.921 0.422 0.234 4.51 0.232 5.07 4.931 0.285 2.398-3.193 5.354-9.204 7.89-21.368 8.97-32.64 28.084-30.949 52.41 1.456 20.616 8.642 39.495 21.32 56.167 13.01 17.094 32.593 24.327 53.867 19.443 6.339-1.456 11.928-2.583 15.356-2.864 0.094 1.972-1.127 5.26-2.395 8.593-2.442 6.2-5.448 15.78-3.57 27.333 2.066 12.82 8.548 23.575 19.96 32.92 14.512 11.882 32.451 19.678 54.852 23.858 26.393 4.931 50.86-7.89 60.348-32.076 0.47-1.267 2.427-8.96 7.583-8.596 4.16 0.296 4.57 3.622 7.21 9.489 9.172 20.396 26.674 32.263 46.54 32.263 2.207 0 4.461-0.14 6.762-0.423 18.832-2.49 36.254-9.112 51.846-19.677 21.932-14.934 29.916-41.844 19.35-65.42-0.47-1.033-1.735-5.702-0.659-7.56 2.005-3.46 9.22-0.08 17.283 1.925 20.701 5.149 40.67-1.127 55.886-18.22 14.7-16.672 19.49-36.161 21.837-49.406 3.522-20.005-3.147-34.142-9.299-42.454-7.602-10.284-17.652-15.825-25.542-19.536z m-12.492 53.679c-2.16 12.07-5.4 20.053-10.52 25.83-3.992 4.555-5.776 4.131-8.03 3.521-11.317-2.864-23.763-5.12-37.616-2.676-20.805 3.709-38.18 23.105-39.543 43.957-0.798 11.6 0.751 21.603 4.837 30.62 1.362 3.053-1.596 5.354-2.49 5.964-9.44 6.387-19.63 10.238-31.605 11.881-0.329-0.188-1.502-1.362-2.677-3.944-6.668-14.934-16.766-25.548-30.197-31.606-17.892-7.984-36.584-5.683-52.74 6.387-9.485 7.139-16.388 16.015-20.522 26.44-0.422 1.128-1.033 3.24-6.763 2.396-14.417-2.724-24.984-7.091-33.202-13.807l-3.425-3.062 1.453-2.668c3.006-7.795 6.105-17.001 5.542-28.225-1.034-22.777-18.128-41.514-40.577-44.52a74.214 74.214 0 0 0-8.97-0.564c-8.829 0-16.86 1.644-24.421 3.334-2.958 0.751-3.382 0.423-4.978-1.643-6.904-9.112-10.849-19.349-11.6-30.432 0 0-0.144-2.418 0.161-3.144 0.206-0.487 0.986-1.274 1.436-1.553 14.021-8.735 26.863-17.142 33.672-30.995 8.687-17.658 6.574-36.913-5.777-51.565-6.012-7.045-14.371-15.686-25.83-19.678-5.353-1.878-3.521-10.66-3.521-10.8 3.005-12.728 6.246-20.195 14.792-26.535 7.373 2.066 16.438 4.743 27.192 3.945 27.896-1.738 47.855-20.9 49.64-46.916l0.797-7.936-0.516-9.534c-0.47-4.65-1.034-9.251-0.094-16.812 8.03-6.482 18.737-10.332 34.424-11.037 3.1 6.622 7.701 15.263 15.733 22.965 12.116 11.6 28.835 16.39 45.789 13.478 17.751-3.146 32.968-14.511 40.763-30.385 1.174-2.441 2.771-4.978 4.509-7.091 13.15 1.878 21.415 4.884 27.802 10.144 1.502 1.268 6.152 4.978 6.388 5.12l-1.457 4.65c-3.288 9.204-4.508 18.174-3.71 27.566 2.35 25.5 24.187 46.212 49.688 47.104 10.52-0.094 20.85-1.502 30.854-5.636l2.36-1.18 2.243 2.871c6.388 8.782 10.144 19.724 9.064 34.612-8.735 3.804-16.344 9.112-22.496 15.686-11.834 12.491-16.953 30.009-13.76 46.82 3.195 16.86 14.418 31.231 30.057 38.557 2.536 1.174 6.012 2.958 7.232 4.556 0.516 0.703 1.267 1.735 0.609 5.54z" p-id="2343"></path><path d="M732.341 618.87c-63.447 0.845-112.992 50.438-112.805 112.851 0.094 30.432 12.07 58.986 33.813 80.4 21.275 21.04 49.311 32.546 78.944 32.546h1.222c63.023-0.61 113.885-51.472 113.368-113.415-0.234-30.338-12.304-58.798-34-80.025-21.65-21.228-50.39-32.686-80.542-32.357z m0.705 177.706c-17.94 1.55-33.578-6.433-45.93-18.691-12.54-12.352-19.442-28.789-19.49-46.259-0.094-35.786 28.6-64.198 65.325-64.668h0.846c17.047 0 33.156 6.575 45.412 18.598 12.491 12.257 19.443 28.6 19.583 46.07 0.33 35.458-29.162 64.622-65.746 64.95z" p-id="2344"></path></svg>