<?xml version="1.0" standalone="no"?><!DOCTYPE svg PUBLIC "-//W3C//DTD SVG 1.1//EN" "http://www.w3.org/Graphics/SVG/1.1/DTD/svg11.dtd"><svg t="1690723682852" class="icon" viewBox="0 0 1024 1024" version="1.1" xmlns="http://www.w3.org/2000/svg" p-id="13680" xmlns:xlink="http://www.w3.org/1999/xlink" width="48" height="48"><path d="M400 400m48 0l160 0q48 0 48 48l0 160q0 48-48 48l-160 0q-48 0-48-48l0-160q0-48 48-48Z" fill="#FFFFFF" p-id="13681"></path><path d="M416 384h224a32 32 0 0 1 32 32v224a32 32 0 0 1-32 32h-224a32 32 0 0 1-32-32v-224a32 32 0 0 1 32-32z m0 32v224h224v-224h-224z" fill="#5D6D7E" p-id="13682"></path><path d="M544 512h384v32H544v384h-32V544H96v-32h416V96h32v416z" fill="#30AD98" p-id="13683"></path></svg>