<?xml version="1.0" standalone="no"?><!DOCTYPE svg PUBLIC "-//W3C//DTD SVG 1.1//EN" "http://www.w3.org/Graphics/SVG/1.1/DTD/svg11.dtd"><svg t="1690728012197" class="icon" viewBox="0 0 1024 1024" version="1.1" xmlns="http://www.w3.org/2000/svg" p-id="29965" xmlns:xlink="http://www.w3.org/1999/xlink" width="200" height="200"><path d="M432 112h-192v128h-128v192h128v480h192v-480h480v-192h-480v-128z" fill="#FFFFFF" p-id="29966"></path><path d="M448 224h480v224H448v480H224V448H96V224h128V96h224v128z m448 32H416V128H256v128H128v160h128v480h160V416h480V256z" fill="#5D6D7E" p-id="29967"></path><path d="M256 416h96v32H256v-32z m0 160h96v32H256v-32z m0 160h96v32H256v-32zM768 256v96h-32V256h32z m-160 0v96h-32V256h32z m-160 0v96h-32V256h32z" fill="#C49F74" p-id="29968"></path></svg>