<?xml version="1.0" standalone="no"?><!DOCTYPE svg PUBLIC "-//W3C//DTD SVG 1.1//EN" "http://www.w3.org/Graphics/SVG/1.1/DTD/svg11.dtd"><svg t="1690527641954" class="icon" viewBox="0 0 1024 1024" version="1.1" xmlns="http://www.w3.org/2000/svg" p-id="13656" xmlns:xlink="http://www.w3.org/1999/xlink" width="200" height="200"><path d="M112 112m32 0l736 0q32 0 32 32l0 736q0 32-32 32l-736 0q-32 0-32-32l0-736q0-32 32-32Z" fill="#FFFFFF" p-id="13657"></path><path d="M128 96h768a32 32 0 0 1 32 32v768a32 32 0 0 1-32 32H128a32 32 0 0 1-32-32V128a32 32 0 0 1 32-32z m0 32v768h768V128H128z" fill="#5D6D7E" p-id="13658"></path><path d="M825.6 384h-36.416A320.416 320.416 0 0 0 576 230.4V197.792c109.12 20.064 200.672 90.464 249.6 186.24zM480 193.44v32.128A320.064 320.064 0 0 0 234.816 384H198.368A352.16 352.16 0 0 1 480 193.44z" fill="#808FA1" p-id="13659"></path><path d="M256 352v96H160V352h96z m608 0v96h-96V352h96z m-288-192v96h-96V160h96z" fill="#30AD98" p-id="13660"></path><path d="M512 690.016V403.328l-155.84 239.776L437.12 832h181.76l80.96-188.896L544 403.328v286.688a64 64 0 1 1-32 0zM531.424 384l-3.424-5.28-3.424 5.28h6.848zM402.272 832L320 640l208-320L736 640l-82.272 192H736v32H320v-32h82.272z m125.728-48a32 32 0 1 0 0-64 32 32 0 0 0 0 64z" fill="#C49F74" p-id="13661"></path></svg>