<?xml version="1.0" standalone="no"?><!DOCTYPE svg PUBLIC "-//W3C//DTD SVG 1.1//EN" "http://www.w3.org/Graphics/SVG/1.1/DTD/svg11.dtd"><svg t="1690850771481" class="icon" viewBox="0 0 1024 1024" version="1.1" xmlns="http://www.w3.org/2000/svg" p-id="13686" xmlns:xlink="http://www.w3.org/1999/xlink" width="200" height="200"><path d="M208 240V896a16 16 0 0 0 16 16h576a16 16 0 0 0 16-16V240h-160V128a16 16 0 0 0-16-16h-256a16 16 0 0 0-16 16v112h-160z" fill="#FFFFFF" p-id="13687"></path><path d="M352 224V128a32 32 0 0 1 32-32h256a32 32 0 0 1 32 32v96h240a16 16 0 1 1 0 32H832v640a32 32 0 0 1-32 32H224a32 32 0 0 1-32-32V256H112a16 16 0 0 1 0-32H352z m32 0h256V128h-256v96z m416 32H224v640h576V256z m-304 113.472a16 16 0 1 1 32 0v446.656a16 16 0 1 1-32 0V369.472z m176 383.36a16 16 0 1 1-32 0v-320.32a16 16 0 1 1 32 0v320.32z m-288 0a16 16 0 1 1-32 0v-320.32a16 16 0 1 1 32 0v320.32z" fill="#5D6D7E" p-id="13688"></path></svg>