<?xml version="1.0" standalone="no"?><!DOCTYPE svg PUBLIC "-//W3C//DTD SVG 1.1//EN" "http://www.w3.org/Graphics/SVG/1.1/DTD/svg11.dtd"><svg t="1690527545979" class="icon" viewBox="0 0 1024 1024" version="1.1" xmlns="http://www.w3.org/2000/svg" p-id="13980" xmlns:xlink="http://www.w3.org/1999/xlink" width="200" height="200"><path d="M896 454.592h-87.04l-2.912-12.32a300.224 300.224 0 0 0-36.832-88.864l-6.656-10.752 61.568-61.6a16 16 0 0 0 0-22.624l-58.56-58.56a16 16 0 0 0-22.624 0L681.344 261.44l-10.752-6.656a300.224 300.224 0 0 0-88.864-36.8l-12.32-2.944V128a16 16 0 0 0-16-16h-82.816a16 16 0 0 0-16 16v87.04l-12.32 2.912a300.224 300.224 0 0 0-88.864 36.832l-10.752 6.656-61.6-61.568a16 16 0 0 0-22.624 0l-58.56 58.56a16 16 0 0 0 0 22.624L261.44 342.656l-6.656 10.752a300.224 300.224 0 0 0-36.8 88.864l-2.944 12.32H128a16 16 0 0 0-16 16v82.816a16 16 0 0 0 16 16h87.04l2.912 12.32c7.456 31.52 19.904 61.44 36.832 88.864l6.656 10.752-61.568 61.6a16 16 0 0 0 0 22.624l58.56 58.56a16 16 0 0 0 22.624 0l61.6-61.568 10.752 6.656c27.392 16.928 57.344 29.376 88.864 36.8l12.32 2.944V896a16 16 0 0 0 16 16h82.816a16 16 0 0 0 16-16v-87.04l12.32-2.912a300.224 300.224 0 0 0 88.864-36.832l10.752-6.656 61.6 61.568a16 16 0 0 0 22.624 0l58.56-58.56a16 16 0 0 0 0-22.624l-61.568-61.6 6.656-10.752a300.224 300.224 0 0 0 36.8-88.864l2.944-12.32H896a16 16 0 0 0 16-16v-82.816a16 16 0 0 0-16-16zM512 688a176 176 0 1 1 0-352 176 176 0 0 1 0 352z" fill="#FFFFFF" p-id="13981"></path><path d="M512 704a192 192 0 1 0 0-384 192 192 0 0 0 0 384z m0-32a160 160 0 1 1 0-320 160 160 0 0 1 0 320z" fill="#27A2DF" p-id="13982"></path><path d="M512 512m-176 0a176 176 0 1 0 352 0 176 176 0 1 0-352 0Z" fill="#27A2DF" fill-opacity=".2" p-id="13983"></path><path d="M896 438.592a32 32 0 0 1 32 32v82.816a32 32 0 0 1-32 32h-74.4a316.256 316.256 0 0 1-38.784 93.6l52.608 52.608a32 32 0 0 1 0 45.248l-58.56 58.56a32 32 0 0 1-45.248 0l-52.608-52.608a316.256 316.256 0 0 1-93.6 38.784V896a32 32 0 0 1-32 32h-82.816a32 32 0 0 1-32-32v-74.4a316.256 316.256 0 0 1-93.6-38.784l-52.608 52.608a32 32 0 0 1-45.248 0l-58.56-58.56a32 32 0 0 1 0-45.248l52.608-52.608a316.256 316.256 0 0 1-38.784-93.6H128a32 32 0 0 1-32-32v-82.816a32 32 0 0 1 32-32h74.4A316.256 316.256 0 0 1 241.184 344.96L188.576 292.384a32 32 0 0 1 0-45.248l58.56-58.56a32 32 0 0 1 45.248 0L344.96 241.184a316.256 316.256 0 0 1 93.6-38.784V128a32 32 0 0 1 32-32h82.816a32 32 0 0 1 32 32v74.4a316.256 316.256 0 0 1 93.6 38.784l52.608-52.608a32 32 0 0 1 45.248 0l58.56 58.56a32 32 0 0 1 0 45.248L782.816 344.96c17.6 28.544 30.848 60.032 38.784 93.6H896z m-105.536 7.36a284.224 284.224 0 0 0-34.88-84.128l-13.312-21.536L812.8 269.76 754.24 211.2l-70.528 70.528-21.536-13.312a284.224 284.224 0 0 0-84.128-34.88l-24.64-5.824V128h-82.816v99.712l-24.64 5.824a284.224 284.224 0 0 0-84.128 34.88l-21.536 13.312L269.76 211.2 211.2 269.76l70.528 70.528-13.312 21.536a284.224 284.224 0 0 0-34.88 84.128l-5.824 24.64H128v82.816h99.712l5.824 24.64c7.04 29.824 18.848 58.176 34.88 84.128l13.312 21.536L211.2 754.24l58.56 58.56 70.528-70.528 21.536 13.312c25.92 16.032 54.304 27.84 84.128 34.88l24.64 5.824V896h82.816v-99.712l24.64-5.824a284.224 284.224 0 0 0 84.128-34.88l21.536-13.312L754.24 812.8l58.56-58.56-70.528-70.528 13.312-21.536c16.032-25.92 27.84-54.304 34.88-84.128l5.824-24.64H896v-82.816h-99.712l-5.824-24.64z" fill="#5D6D7E" p-id="13984"></path></svg>