<?xml version="1.0" standalone="no"?><!DOCTYPE svg PUBLIC "-//W3C//DTD SVG 1.1//EN" "http://www.w3.org/Graphics/SVG/1.1/DTD/svg11.dtd"><svg t="1690527346387" class="icon" viewBox="0 0 1024 1024" version="1.1" xmlns="http://www.w3.org/2000/svg" p-id="13656" xmlns:xlink="http://www.w3.org/1999/xlink" width="200" height="200"><path d="M96 928h832V544h-256V288h-96V226.048h-192V288H288v128H96z" fill="#FFFFFF" p-id="13657"></path><path d="M496 192H544a32 32 0 0 1 32 32v64h96v256h256v384H96V416h192V288h96V224a32 32 0 0 1 32-32h48V80h32V192zM416 288h128V224h-128v64z m224 32H320v576h320V320zM288 448H128v448h160V448z m384 128v320h224V576h-224z" fill="#5D6D7E" p-id="13658"></path><path d="M384 416h64v96h-64v-96z m128 0h64v96h-64v-96z m-128 160h64v96h-64v-96z m128 0h64v96h-64v-96z m-128 160h64v96h-64v-96z m128 0h64v96h-64v-96z" fill="#27A2DF" p-id="13659"></path><path d="M736 640h96v64h-96v-64z m0 128h96v64h-96v-64zM192 640h64v64H192v-64z m0-128h64v64H192v-64z m0 256h64v64H192v-64z" fill="#ACB4C0" p-id="13660"></path></svg>